<?xml version="1.0" encoding="UTF-8"?>
<svg width="129px" height="82px" viewBox="0 0 129 82" version="1.1" xmlns="http://www.w3.org/2000/svg" xmlns:xlink="http://www.w3.org/1999/xlink">
    <!-- Generator: Sketch 49 (51002) - http://www.bohemiancoding.com/sketch -->
    <title>Shape</title>
    <desc>Created with Sketch.</desc>
    <defs></defs>
    <g id="Page-1" stroke="none" stroke-width="1" fill="none" fill-rule="evenodd">
        <g id="script-love" fill="#F3004E" fill-rule="nonzero">
            <path d="M126.2,51.7 C125.2,52.8 124.1,53.9 123.2,55.1 C120.5,58.5 117.8,61.9 115.2,65.3 C112.7,68.5 110.1,71.7 106.9,74.3 C105.5,75.5 104,76.5 101.9,77 C100.8,71.7 101.4,66.7 103.2,61.6 C105.3,61.9 107.2,61.6 108.9,60.6 C113.7,57.8 117,53.9 118.4,48.5 C119.1,45.7 118.8,43 117.4,40.4 C115.9,37.7 113.7,36.9 111,38.4 C109,39.5 106.9,40.9 105.3,42.5 C101.3,46.3 98.3,50.6 96.2,55.3 C94.6,56.6 92.8,57.8 91,58.9 C90,57.2 89.9,55.4 89.8,53.7 C89.6,50.5 89.8,47.3 90.4,44.1 C90.9,41.6 90.3,40.6 88.1,39.7 C86.5,39 86,39.2 85.2,40.8 C81.6,47.6 77.9,54.3 74.2,61 C73.4,62.4 72.6,63.7 71.6,65.4 C71.5,64.8 71.4,64.6 71.4,64.3 C71.8,60.4 72.1,56.4 72.5,52.5 C73,47.6 73.7,42.8 74.3,37.9 C74.6,35.5 73.9,34.6 71.7,33.6 C69.2,32.5 68.1,32.9 67.5,35.5 C66.8,38.7 66.1,41.9 65.4,45.1 C62.2,46.9 59,48.8 55.8,50.6 C55.2,51 54.4,51.2 53.5,51.6 C53.5,50.2 53.5,49.2 53.5,48.2 C53.3,44.1 51.6,40.7 48.4,38 C42.2,32.9 32.6,36.4 31.2,44.4 C31,45.7 31.2,47.1 31.5,48.8 C31.5,48.8 31.5,48.8 31.5,48.8 C31.2,49.1 31,49.5 30.8,49.9 C25.9,57.9 19.3,65.6 13.4,72.9 C13.1,73.3 12.8,73.7 12.3,73.9 C12.1,73.8 12,73.7 11.8,73.7 C11.1,71.9 11,70.1 11,68.2 C10.9,63.7 11.4,59.1 12.3,54.7 C14.2,45.7 16.2,36.7 18.2,27.7 C19.7,21.3 21.1,14.9 22,8.4 C22.5,5.2 20.7,2 17.6,0.8 C16.2,0.3 15.7,0.4 15,1.7 C14.7,2.3 14.5,2.9 14.2,3.6 C8.4,19 4.3,34.8 1.6,51 C0.6,57.2 0.1,63.4 0.4,69.7 C0.5,72.4 0.7,75 1.8,77.5 C2.9,80 4.5,81 7.1,80.5 C8.6,80.3 10.2,79.9 11.5,79.2 C15,77.4 18.2,75.1 20.6,72 C21.5,70.9 22.3,69.8 23.1,68.7 C23.2,69.9 23.4,71.1 23.8,72.3 C25.1,75.9 27.4,78.4 31.2,79.2 C36.3,80.3 40.7,79.1 44.1,75 C45.2,73.7 46.1,72.3 46.8,70.8 C48.5,66.9 50.1,62.9 51.6,59 C51.9,58.2 52.1,57.4 53.1,57.1 C56.9,55.8 60.5,54 63.9,51.9 C63.1,56.6 62.6,61.4 62.7,66.2 C62.7,67.8 62.9,69.4 63.2,71 C63.3,72 63.9,72.8 64.8,73.4 C67.5,75.2 71.9,74.6 73.9,72 C75,70.5 76,68.8 76.9,67.1 C78.8,63.5 80.7,59.9 82.6,56.2 C82.8,55.8 83.1,55.4 83.4,54.9 C84,56.4 84.3,57.7 84.9,58.9 C86.4,61.9 90.3,63.5 93.3,62.6 C92.9,64.2 92.6,65.9 92.3,67.7 C92.1,69.3 92,70.9 92.2,72.5 C92.9,78.7 98.6,82.7 104.8,81.3 C107.6,80.7 109.8,79.1 111.7,77.1 C112.8,75.9 113.9,74.7 114.9,73.5 C119.1,68 123.2,62.5 127.3,57 C128.8,55.2 128.3,53.2 126.2,51.7 Z M35.4,75.4 C34,73.8 33.9,72 34.2,70.3 C34.6,67.8 35.3,65.4 36.1,63 C36.8,60.8 37.9,58.8 38.7,56.8 C41.3,57.4 43.6,58 46.2,58.6 C43.5,64.9 40.5,70.7 35.4,75.4 Z M48.2,52.8 C48,53.6 47.6,54.2 46.6,54.3 C44.8,54.4 43.1,54.6 40.8,54.8 C41.2,54 41.3,53.8 41.4,53.7 C42.9,52.1 42.9,51.5 41.4,50 C39.9,48.5 38.1,47.8 35.7,48 C35.9,47.1 36,46.5 36.3,45.9 C37.7,43 39.9,41 42.9,40 C46.1,39 47.9,40.1 48.6,43.3 C49.3,46.5 49,49.6 48.2,52.8 Z M113.7,45.1 C113.6,47.5 110.5,51.2 106.7,53.4 C108.4,50.2 110.6,47.3 113.7,45.1 Z" id="Shape"></path>
        </g>
    </g>
</svg>