<?xml version="1.0" encoding="UTF-8"?>
<svg width="475px" height="133px" viewBox="0 0 475 133" version="1.1" xmlns="http://www.w3.org/2000/svg" xmlns:xlink="http://www.w3.org/1999/xlink">
    <!-- Generator: Sketch 48.2 (47327) - http://www.bohemiancoding.com/sketch -->
    <title>joyome-logo</title>
    <desc>Created with Sketch.</desc>
    <defs></defs>
    <g id="Page-1" stroke="none" stroke-width="1" fill="none" fill-rule="evenodd">
        <g id="joyome-logo" fill="#000000" fill-rule="nonzero">
            <g id="Group">
                <path d="M31.2,33.2 L31.2,103.1 C31.2,107.2 30.9,111 30.4,114.6 C29.9,118.1 28.8,121.2 27.2,123.8 C25.6,126.4 23.3,128.4 20.4,129.9 C17.5,131.4 13.7,132.1 9,132.1 C7.4,132.1 5.9,132 4.5,131.8 C3,131.6 1.6,131.3 0.1,130.8 L1.3,116.5 C2.2,116.7 3.1,116.8 3.9,117 C4.7,117.1 5.6,117.2 6.5,117.2 C8.5,117.2 10.1,116.8 11.2,115.9 C12.3,115 13.2,113.9 13.7,112.5 C14.2,111.1 14.5,109.6 14.6,108 C14.7,106.4 14.7,104.7 14.7,103.2 L14.7,33.2 L31.2,33.2 Z M12.4,10.8 C12.4,8.1 13.4,5.8 15.4,3.9 C17.4,1.9 19.9,0.9 22.9,0.9 C25.9,0.9 28.5,1.8 30.5,3.7 C32.6,5.6 33.6,7.9 33.6,10.8 C33.6,13.6 32.6,16 30.5,17.9 C28.4,19.8 25.9,20.7 22.9,20.7 C19.9,20.7 17.4,19.7 15.4,17.7 C13.4,15.7 12.4,13.4 12.4,10.8 Z" id="Shape"></path>
                <path d="M45.2,66.1 C45.2,60.9 46.1,56.1 47.9,51.9 C49.7,47.6 52.1,44 55.1,41 C58.1,38 61.8,35.6 65.9,34 C70.1,32.4 74.5,31.5 79.2,31.5 C83.9,31.5 88.3,32.3 92.5,34 C96.7,35.6 100.3,38 103.3,41 C106.3,44 108.8,47.7 110.5,51.9 C112.3,56.2 113.2,60.9 113.2,66.1 C113.2,71.3 112.3,76.1 110.5,80.3 C108.7,84.6 106.3,88.2 103.3,91.2 C100.3,94.2 96.6,96.6 92.5,98.2 C88.3,99.8 83.9,100.7 79.2,100.7 C74.5,100.7 70.1,99.9 65.9,98.2 C61.7,96.6 58.1,94.2 55.1,91.2 C52.1,88.2 49.6,84.5 47.9,80.3 C46.1,76.1 45.2,71.3 45.2,66.1 Z M60.9,66.1 C60.9,68.7 61.3,71.1 62.1,73.5 C62.9,75.9 64.1,78 65.8,79.8 C67.4,81.6 69.3,83.1 71.6,84.2 C73.9,85.3 76.4,85.8 79.3,85.8 C82.2,85.8 84.7,85.3 87,84.2 C89.3,83.1 91.2,81.6 92.8,79.8 C94.4,78 95.6,75.9 96.5,73.5 C97.3,71.1 97.7,68.6 97.7,66.1 C97.7,63.5 97.3,61.1 96.5,58.7 C95.7,56.3 94.5,54.2 92.8,52.4 C91.2,50.6 89.3,49.1 87,48 C84.7,46.9 82.2,46.4 79.3,46.4 C76.4,46.4 73.9,46.9 71.6,48 C69.3,49.1 67.4,50.6 65.8,52.4 C64.2,54.2 63,56.3 62.1,58.7 C61.3,61.1 60.9,63.6 60.9,66.1 Z" id="Shape"></path>
                <path d="M116.2,33.2 L134.3,33.2 L152.7,78.9 L153,78.9 L169.5,33.2 L186.7,33.2 L155.5,113.3 C154.3,116.4 153,119.1 151.6,121.5 C150.2,123.8 148.5,125.8 146.6,127.4 C144.7,129 142.4,130.2 139.8,131 C137.2,131.8 134.1,132.2 130.4,132.2 C126.1,132.2 121.9,131.7 117.8,130.6 L119.9,115.8 C121.2,116.3 122.5,116.6 124,117 C125.4,117.3 126.9,117.5 128.3,117.5 C130.3,117.5 132,117.3 133.4,117 C134.8,116.6 135.9,116.1 136.9,115.3 C137.9,114.5 138.7,113.5 139.3,112.3 C139.9,111.1 140.6,109.6 141.4,107.8 L144.6,100 L116.2,33.2 Z" id="Shape"></path>
                <path d="M191.2,66.6 C191.2,61.6 192,57.1 193.7,52.9 C195.4,48.7 197.7,45.1 200.7,42.1 C203.7,39.1 207.3,36.7 211.5,35 C215.7,33.3 220.3,32.5 225.3,32.5 C230.3,32.5 234.8,33.3 239,35 C243.2,36.7 246.8,39.1 249.8,42.1 C252.8,45.2 255.2,48.8 256.9,52.9 C258.6,57.1 259.4,61.7 259.4,66.6 C259.4,71.6 258.6,76.1 256.9,80.3 C255.2,84.5 252.8,88.1 249.8,91.1 C246.8,94.1 243.1,96.5 239,98.2 C234.8,99.9 230.2,100.7 225.3,100.7 C220.3,100.7 215.7,99.9 211.5,98.2 C207.3,96.5 203.7,94.1 200.7,91.1 C197.7,88.1 195.4,84.4 193.7,80.3 C192.1,76.1 191.2,71.5 191.2,66.6 Z M199.7,66.6 C199.7,70.3 200.3,73.7 201.5,76.9 C202.7,80.1 204.4,83 206.6,85.3 C208.9,87.7 211.6,89.6 214.8,91 C218,92.4 221.6,93.1 225.5,93.1 C229.4,93.1 233,92.4 236.2,91 C239.4,89.6 242.1,87.7 244.4,85.3 C246.7,82.9 248.4,80.1 249.5,76.9 C250.7,73.7 251.3,70.2 251.3,66.6 C251.3,63 250.7,59.5 249.5,56.3 C248.3,53.1 246.6,50.2 244.4,47.9 C242.1,45.5 239.4,43.6 236.2,42.2 C233,40.8 229.4,40.1 225.5,40.1 C221.6,40.1 218,40.8 214.8,42.2 C211.6,43.6 208.9,45.5 206.6,47.9 C204.3,50.3 202.6,53.1 201.5,56.3 C200.3,59.5 199.7,62.9 199.7,66.6 Z M244.1,20.4 L207,20.4 L207,13.6 L244.2,13.6 L244.2,20.4 L244.1,20.4 Z" id="Shape"></path>
                <path d="M272.3,52.4 C272.3,51.2 272.3,49.7 272.2,48 C272.1,46.3 272,44.5 272,42.7 C272,40.9 271.9,39.3 271.8,37.7 C271.7,36.2 271.7,35 271.7,34.1 L279.7,34.1 C279.8,36.5 279.9,38.9 279.9,41.1 C279.9,43.4 280.1,44.8 280.2,45.5 L280.6,45.5 C282.2,41.9 284.9,38.9 288.6,36.3 C292.3,33.7 296.7,32.4 301.7,32.4 C305.8,32.4 309.5,33.5 312.9,35.7 C316.3,37.9 318.7,41.5 320.3,46.5 C322.3,41.6 325.2,38.1 329.1,35.8 C333,33.5 337.1,32.4 341.3,32.4 C346.1,32.4 350,33.2 353.1,34.8 C356.1,36.4 358.5,38.5 360.3,41.1 C362,43.7 363.2,46.7 363.9,50 C364.6,53.4 364.9,56.9 364.9,60.4 L364.9,99.1 L356.9,99.1 L356.9,60.8 C356.9,58.2 356.7,55.6 356.2,53.1 C355.8,50.6 355,48.4 353.9,46.4 C352.8,44.4 351.2,42.9 349.2,41.7 C347.2,40.5 344.6,39.9 341.4,39.9 C337.7,39.9 334.6,40.6 332.2,42.1 C329.8,43.6 327.9,45.4 326.5,47.7 C325.1,50 324.1,52.4 323.6,55 C323,57.6 322.7,60.1 322.7,62.5 L322.7,99.1 L314.7,99.1 L314.7,60 C314.7,54 313.7,49.2 311.6,45.5 C309.5,41.8 306.3,40 301.9,40 C299,40 296.2,40.5 293.5,41.6 C290.9,42.7 288.6,44.3 286.7,46.5 C284.8,48.7 283.3,51.5 282.2,54.8 C281.1,58.1 280.5,62 280.5,66.6 L280.5,99.1 L272.5,99.1 L272.5,52.4 L272.3,52.4 Z" id="Shape"></path>
                <path d="M435.4,86.8 C432.3,91.8 428.4,95.3 423.8,97.5 C419.2,99.7 414.2,100.7 408.6,100.7 C403.9,100.7 399.6,99.9 395.8,98.2 C392,96.5 388.7,94.1 385.9,91.1 C383.1,88.1 381,84.4 379.5,80.3 C378,76.1 377.3,71.5 377.3,66.4 C377.3,61.5 378.1,57 379.6,52.9 C381.1,48.8 383.3,45.2 386,42.1 C388.8,39.1 392,36.7 395.8,34.9 C399.5,33.2 403.7,32.3 408.2,32.3 C412.9,32.3 417.1,33.2 420.7,34.9 C424.3,36.6 427.3,38.9 429.8,41.8 C432.3,44.7 434.1,47.9 435.3,51.6 C436.5,55.3 437.2,59 437.2,62.7 L437.2,68.6 L385.3,68.6 C385.3,70.4 385.6,72.7 386.3,75.4 C387,78.2 388.2,80.9 390,83.5 C391.8,86.1 394.2,88.4 397.2,90.3 C400.2,92.2 404,93.1 408.8,93.1 C412.9,93.1 416.9,92.1 420.7,90 C424.5,87.9 427.5,85.1 429.5,81.6 L435.4,86.8 Z M429.3,61.1 C429.3,58.2 428.7,55.5 427.6,52.9 C426.5,50.4 425,48.1 423.1,46.2 C421.2,44.3 418.9,42.8 416.3,41.6 C413.7,40.5 410.9,39.9 407.9,39.9 C403.5,39.9 399.9,40.8 397,42.7 C394.1,44.6 391.8,46.7 390.1,49.2 C388.4,51.6 387.2,54 386.5,56.3 C385.8,58.6 385.4,60.2 385.4,61 L429.3,61 L429.3,61.1 Z" id="Shape"></path>
            </g>
            <path d="M447.7,84.2 L442.5,84.2 L442.5,82.2 L455.1,82.2 L455.1,84.2 L449.9,84.2 L449.9,99.3 L447.8,99.3 L447.8,84.2 L447.7,84.2 Z M458,82.2 L461.4,82.2 L466.5,95.8 L471.6,82.2 L474.9,82.2 L474.9,99.3 L472.8,99.3 L472.8,84.3 L472.7,84.3 L467.1,99.3 L465.8,99.3 L460.2,84.3 L460.1,84.3 L460.1,99.3 L458,99.3 L458,82.2 Z" id="Shape"></path>
        </g>
    </g>
</svg>